<mxfile host="app.diagrams.net" modified="2021-03-25T10:23:26.377Z" agent="5.0 (Macintosh; Intel Mac OS X 11_1_0) AppleWebKit/537.36 (KHTML, like Gecko) Chrome/89.0.4389.82 Safari/537.36" etag="WcD5pgdHAo0PMXRmFyuk" version="14.5.1" type="github">
  <diagram id="zd64AM2d0WWJBgExKvFI" name="Page-1">
    <mxGraphModel dx="329" dy="196" grid="1" gridSize="10" guides="1" tooltips="1" connect="1" arrows="1" fold="1" page="1" pageScale="1" pageWidth="1169" pageHeight="1654" math="0" shadow="0">
      <root>
        <mxCell id="0" />
        <mxCell id="1" parent="0" />
        <mxCell id="aRFKE7H6pcQlOoRVAtGo-1" value="web&#xa;browser:client" style="shape=umlLifeline;perimeter=lifelinePerimeter;container=1;collapsible=0;recursiveResize=0;rounded=0;shadow=0;strokeWidth=1;" vertex="1" parent="1">
          <mxGeometry x="165" y="150" width="100" height="610" as="geometry" />
        </mxCell>
        <mxCell id="aRFKE7H6pcQlOoRVAtGo-2" value="DFAServer&#xa;:Server" style="shape=umlLifeline;perimeter=lifelinePerimeter;container=1;collapsible=0;recursiveResize=0;rounded=0;shadow=0;strokeWidth=1;" vertex="1" parent="1">
          <mxGeometry x="345" y="150" width="100" height="700" as="geometry" />
        </mxCell>
        <mxCell id="aRFKE7H6pcQlOoRVAtGo-3" value="" style="html=1;points=[];perimeter=orthogonalPerimeter;" vertex="1" parent="aRFKE7H6pcQlOoRVAtGo-2">
          <mxGeometry x="45" y="100" width="10" height="40" as="geometry" />
        </mxCell>
        <mxCell id="aRFKE7H6pcQlOoRVAtGo-4" value="do_GET(self)" style="edgeStyle=orthogonalEdgeStyle;html=1;align=left;spacingLeft=2;endArrow=block;rounded=0;entryX=1;entryY=0;" edge="1" parent="aRFKE7H6pcQlOoRVAtGo-2" target="aRFKE7H6pcQlOoRVAtGo-3">
          <mxGeometry relative="1" as="geometry">
            <mxPoint x="50" y="80" as="sourcePoint" />
            <Array as="points">
              <mxPoint x="75" y="80" />
            </Array>
          </mxGeometry>
        </mxCell>
        <mxCell id="aRFKE7H6pcQlOoRVAtGo-5" value="" style="html=1;points=[];perimeter=orthogonalPerimeter;" vertex="1" parent="aRFKE7H6pcQlOoRVAtGo-2">
          <mxGeometry x="45" y="160" width="10" height="40" as="geometry" />
        </mxCell>
        <mxCell id="aRFKE7H6pcQlOoRVAtGo-6" value="do_GET(self)" style="edgeStyle=orthogonalEdgeStyle;html=1;align=left;spacingLeft=2;endArrow=block;rounded=0;entryX=1;entryY=0;" edge="1" parent="aRFKE7H6pcQlOoRVAtGo-2" target="aRFKE7H6pcQlOoRVAtGo-5">
          <mxGeometry relative="1" as="geometry">
            <mxPoint x="50" y="140" as="sourcePoint" />
            <Array as="points">
              <mxPoint x="75" y="140" />
            </Array>
          </mxGeometry>
        </mxCell>
        <mxCell id="aRFKE7H6pcQlOoRVAtGo-7" value="" style="html=1;points=[];perimeter=orthogonalPerimeter;" vertex="1" parent="aRFKE7H6pcQlOoRVAtGo-2">
          <mxGeometry x="45" y="270" width="10" height="40" as="geometry" />
        </mxCell>
        <mxCell id="aRFKE7H6pcQlOoRVAtGo-8" value="do_Post(self)" style="edgeStyle=orthogonalEdgeStyle;html=1;align=left;spacingLeft=2;endArrow=block;rounded=0;entryX=1;entryY=0;" edge="1" parent="aRFKE7H6pcQlOoRVAtGo-2" target="aRFKE7H6pcQlOoRVAtGo-7">
          <mxGeometry relative="1" as="geometry">
            <mxPoint x="50" y="250" as="sourcePoint" />
            <Array as="points">
              <mxPoint x="75" y="250" />
            </Array>
          </mxGeometry>
        </mxCell>
        <mxCell id="aRFKE7H6pcQlOoRVAtGo-9" value="" style="html=1;points=[];perimeter=orthogonalPerimeter;" vertex="1" parent="aRFKE7H6pcQlOoRVAtGo-2">
          <mxGeometry x="45" y="330" width="10" height="80" as="geometry" />
        </mxCell>
        <mxCell id="aRFKE7H6pcQlOoRVAtGo-10" value="" style="html=1;points=[];perimeter=orthogonalPerimeter;" vertex="1" parent="aRFKE7H6pcQlOoRVAtGo-2">
          <mxGeometry x="45" y="380" width="10" height="40" as="geometry" />
        </mxCell>
        <mxCell id="aRFKE7H6pcQlOoRVAtGo-11" value="write DFA file" style="edgeStyle=orthogonalEdgeStyle;html=1;align=left;spacingLeft=2;endArrow=block;rounded=0;entryX=1;entryY=0;" edge="1" parent="aRFKE7H6pcQlOoRVAtGo-2" target="aRFKE7H6pcQlOoRVAtGo-10">
          <mxGeometry x="0.8904" relative="1" as="geometry">
            <mxPoint x="50" y="640" as="sourcePoint" />
            <Array as="points">
              <mxPoint x="50" y="350" />
              <mxPoint x="75" y="350" />
              <mxPoint x="75" y="380" />
            </Array>
            <mxPoint as="offset" />
          </mxGeometry>
        </mxCell>
        <mxCell id="aRFKE7H6pcQlOoRVAtGo-12" value="" style="verticalAlign=bottom;endArrow=open;dashed=1;endSize=8;shadow=0;strokeWidth=1;" edge="1" parent="1" source="aRFKE7H6pcQlOoRVAtGo-2">
          <mxGeometry x="-0.0588" y="-102" relative="1" as="geometry">
            <mxPoint x="220" y="260" as="targetPoint" />
            <Array as="points">
              <mxPoint x="310" y="260" />
            </Array>
            <mxPoint as="offset" />
          </mxGeometry>
        </mxCell>
        <mxCell id="aRFKE7H6pcQlOoRVAtGo-13" value="HTML form/" style="edgeLabel;html=1;align=center;verticalAlign=middle;resizable=0;points=[];" vertex="1" connectable="0" parent="aRFKE7H6pcQlOoRVAtGo-12">
          <mxGeometry x="0.0978" y="2" relative="1" as="geometry">
            <mxPoint x="11.21" y="-12" as="offset" />
          </mxGeometry>
        </mxCell>
        <mxCell id="aRFKE7H6pcQlOoRVAtGo-14" value="GET /" style="verticalAlign=bottom;endArrow=block;shadow=0;strokeWidth=1;" edge="1" parent="1">
          <mxGeometry relative="1" as="geometry">
            <mxPoint x="220" y="230" as="sourcePoint" />
            <mxPoint x="390" y="230" as="targetPoint" />
          </mxGeometry>
        </mxCell>
        <mxCell id="aRFKE7H6pcQlOoRVAtGo-15" value="" style="verticalAlign=bottom;endArrow=open;dashed=1;endSize=8;exitX=0;exitY=0.5;shadow=0;strokeWidth=1;exitDx=0;exitDy=0;exitPerimeter=0;" edge="1" parent="1" source="aRFKE7H6pcQlOoRVAtGo-5">
          <mxGeometry relative="1" as="geometry">
            <mxPoint x="220" y="330" as="targetPoint" />
            <mxPoint x="225" y="346" as="sourcePoint" />
          </mxGeometry>
        </mxCell>
        <mxCell id="aRFKE7H6pcQlOoRVAtGo-16" value="HTML for /weldMaze" style="edgeLabel;html=1;align=center;verticalAlign=middle;resizable=0;points=[];" vertex="1" connectable="0" parent="aRFKE7H6pcQlOoRVAtGo-15">
          <mxGeometry x="-0.0584" y="2" relative="1" as="geometry">
            <mxPoint as="offset" />
          </mxGeometry>
        </mxCell>
        <mxCell id="aRFKE7H6pcQlOoRVAtGo-17" value="Client" style="shape=umlLifeline;participant=umlActor;perimeter=lifelinePerimeter;whiteSpace=wrap;html=1;container=1;collapsible=0;recursiveResize=0;verticalAlign=top;spacingTop=36;outlineConnect=0;" vertex="1" parent="1">
          <mxGeometry x="40" y="160" width="20" height="600" as="geometry" />
        </mxCell>
        <mxCell id="aRFKE7H6pcQlOoRVAtGo-18" value="http://127.0.0.1:1234" style="html=1;verticalAlign=bottom;endArrow=block;" edge="1" parent="1" source="aRFKE7H6pcQlOoRVAtGo-17">
          <mxGeometry width="80" relative="1" as="geometry">
            <mxPoint x="160" y="310" as="sourcePoint" />
            <mxPoint x="210" y="240" as="targetPoint" />
            <Array as="points">
              <mxPoint x="140" y="240" />
            </Array>
          </mxGeometry>
        </mxCell>
        <mxCell id="aRFKE7H6pcQlOoRVAtGo-19" value="" style="verticalAlign=bottom;endArrow=open;dashed=1;endSize=8;shadow=0;strokeWidth=1;" edge="1" parent="1">
          <mxGeometry x="-0.0588" y="-102" relative="1" as="geometry">
            <mxPoint x="50" y="260" as="targetPoint" />
            <mxPoint x="210" y="260" as="sourcePoint" />
            <Array as="points" />
            <mxPoint as="offset" />
          </mxGeometry>
        </mxCell>
        <mxCell id="aRFKE7H6pcQlOoRVAtGo-20" value="HTML page/" style="edgeLabel;html=1;align=center;verticalAlign=middle;resizable=0;points=[];" vertex="1" connectable="0" parent="aRFKE7H6pcQlOoRVAtGo-19">
          <mxGeometry x="0.0978" y="2" relative="1" as="geometry">
            <mxPoint x="11.21" y="-12" as="offset" />
          </mxGeometry>
        </mxCell>
        <mxCell id="aRFKE7H6pcQlOoRVAtGo-21" value="/weldMaze" style="html=1;verticalAlign=bottom;endArrow=block;" edge="1" parent="1">
          <mxGeometry width="80" relative="1" as="geometry">
            <mxPoint x="50" y="290" as="sourcePoint" />
            <mxPoint x="210.5" y="290" as="targetPoint" />
            <Array as="points" />
          </mxGeometry>
        </mxCell>
        <mxCell id="aRFKE7H6pcQlOoRVAtGo-22" value="GET /weldMaze" style="verticalAlign=bottom;endArrow=block;entryX=0;entryY=0;shadow=0;strokeWidth=1;" edge="1" parent="1">
          <mxGeometry relative="1" as="geometry">
            <mxPoint x="220" y="290" as="sourcePoint" />
            <mxPoint x="390" y="290.0000000000001" as="targetPoint" />
          </mxGeometry>
        </mxCell>
        <mxCell id="aRFKE7H6pcQlOoRVAtGo-23" value="" style="verticalAlign=bottom;endArrow=open;dashed=1;endSize=8;shadow=0;strokeWidth=1;" edge="1" parent="1">
          <mxGeometry x="-0.0588" y="-102" relative="1" as="geometry">
            <mxPoint x="50" y="330" as="targetPoint" />
            <mxPoint x="210" y="330" as="sourcePoint" />
            <Array as="points" />
            <mxPoint as="offset" />
          </mxGeometry>
        </mxCell>
        <mxCell id="aRFKE7H6pcQlOoRVAtGo-24" value="HTML form with ux feedback" style="edgeLabel;html=1;align=center;verticalAlign=middle;resizable=0;points=[];" vertex="1" connectable="0" parent="aRFKE7H6pcQlOoRVAtGo-23">
          <mxGeometry x="0.0978" y="2" relative="1" as="geometry">
            <mxPoint x="11.21" y="-12" as="offset" />
          </mxGeometry>
        </mxCell>
        <mxCell id="aRFKE7H6pcQlOoRVAtGo-25" value="Submit maze" style="html=1;verticalAlign=bottom;endArrow=block;" edge="1" parent="1">
          <mxGeometry width="80" relative="1" as="geometry">
            <mxPoint x="50" y="380" as="sourcePoint" />
            <mxPoint x="210.5" y="380" as="targetPoint" />
            <Array as="points">
              <mxPoint x="140.5" y="380" />
            </Array>
          </mxGeometry>
        </mxCell>
        <mxCell id="aRFKE7H6pcQlOoRVAtGo-26" value="POST /weldMaze" style="verticalAlign=bottom;endArrow=block;entryX=0;entryY=0;shadow=0;strokeWidth=1;" edge="1" parent="1">
          <mxGeometry relative="1" as="geometry">
            <mxPoint x="220" y="400" as="sourcePoint" />
            <mxPoint x="396.5999999999999" y="400" as="targetPoint" />
          </mxGeometry>
        </mxCell>
      </root>
    </mxGraphModel>
  </diagram>
</mxfile>
